<svg width="677" height="377" xmlns="http://www.w3.org/2000/svg" xmlns:xlink="http://www.w3.org/1999/xlink" xml:space="preserve" overflow="hidden"><g transform="matrix(1 0 0 1 0 -3)"><path d="M22.3126 128.587 44.4599 128.587 44.4599 271.057 22.3126 271.057Z" fill="#D9D9D9" transform="matrix(1.00297 0 0 1 -21.0526 -16.8334)"/><text font-family="Calibri Light,Calibri Light_MSFontService,sans-serif" font-weight="300" font-size="83" transform="matrix(-3.04512e-17 -0.165278 0.165769 -3.03611e-17 16.8814 248)">Screening and Eligibility</text><path d="M22.3126 19.8334 44.4599 19.8334 44.4599 111.398 22.3126 111.398Z" fill="#D9D9D9" transform="matrix(1.00297 0 0 1 -21.0526 -16.8334)"/><text font-family="Calibri Light,Calibri Light_MSFontService,sans-serif" font-weight="300" font-size="83" transform="matrix(-3.04512e-17 -0.165278 0.165769 -3.03611e-17 16.8814 85)">Identification</text><path d="M22.3126 299.65 44.4599 299.65 44.4599 396.338 22.3126 396.338Z" fill="#D9D9D9" transform="matrix(1.00297 0 0 1 -21.0526 -16.8334)"/><text font-family="Calibri Light,Calibri Light_MSFontService,sans-serif" font-weight="300" font-size="83" transform="matrix(-3.04512e-17 -0.165278 0.165769 -3.03611e-17 16.8814 355)">Included</text><path d="M64.8718 38.6479C64.8718 33.2317 69.2624 28.8411 74.6784 28.8411L236.872 28.8411C242.288 28.8411 246.678 33.2317 246.678 38.6479L246.678 77.8734C246.678 83.2896 242.288 87.6802 236.872 87.6802L74.6784 87.6802C69.2624 87.6802 64.8718 83.2896 64.8718 77.8734Z" stroke="#A5A5A5" stroke-width="0.757525" stroke-miterlimit="8" fill="#FFFFFF" fill-rule="evenodd" transform="matrix(1.00297 0 0 1 -21.0526 -16.8334)"/><text font-family="Calibri Light,Calibri Light_MSFontService,sans-serif" font-weight="700" font-size="60" transform="matrix(0.165769 0 0 0.165278 70.6137 33)">Papers identified with line means</text><text font-family="Calibri Light,Calibri Light_MSFontService,sans-serif" font-style="italic" font-weight="700" font-size="60" transform="matrix(0.165769 0 0 0.165278 106.084 56)">N</text><text font-family="Calibri Light,Calibri Light_MSFontService,sans-serif" font-weight="300" font-size="60" transform="matrix(0.165769 0 0 0.165278 112.257 56)">(</text><text font-family="Calibri Light,Calibri Light_MSFontService,sans-serif" font-weight="300" font-size="60" transform="matrix(0.165769 0 0 0.165278 115.241 56)">study</text><text font-family="Calibri Light,Calibri Light_MSFontService,sans-serif" font-weight="300" font-size="60" transform="matrix(0.165769 0 0 0.165278 136.791 56)">) = </text><text font-family="Calibri Light,Calibri Light_MSFontService,sans-serif" font-weight="300" font-size="60" transform="matrix(0.165769 0 0 0.165278 149.389 56)">105 </text><path d="M294.113 37.3255C294.113 31.9095 298.503 27.5189 303.919 27.5189L466.113 27.5189C471.529 27.5189 475.919 31.9095 475.919 37.3255L475.919 76.551C475.919 81.9672 471.529 86.3578 466.113 86.3578L303.919 86.3578C298.503 86.3578 294.113 81.9672 294.113 76.551Z" stroke="#A5A5A5" stroke-width="0.757525" stroke-miterlimit="8" fill="#FFFFFF" fill-rule="evenodd" transform="matrix(1.00297 0 0 1 -21.0526 -16.8334)"/><text font-family="Calibri Light,Calibri Light_MSFontService,sans-serif" font-weight="700" font-size="60" transform="matrix(0.165769 0 0 0.165278 304.668 37)">Papers identified with raw data</text><text font-family="Calibri Light,Calibri Light_MSFontService,sans-serif" font-style="italic" font-weight="700" font-size="60" transform="matrix(0.165769 0 0 0.165278 338.425 49)">N</text><text font-family="Calibri Light,Calibri Light_MSFontService,sans-serif" font-weight="300" font-size="60" transform="matrix(0.165769 0 0 0.165278 344.599 49)">(</text><text font-family="Calibri Light,Calibri Light_MSFontService,sans-serif" font-weight="300" font-size="60" transform="matrix(0.165769 0 0 0.165278 347.582 49)">study</text><text font-family="Calibri Light,Calibri Light_MSFontService,sans-serif" font-weight="300" font-size="60" transform="matrix(0.165769 0 0 0.165278 369.132 49)">) = </text><text font-family="Calibri Light,Calibri Light_MSFontService,sans-serif" font-weight="300" font-size="60" transform="matrix(0.165769 0 0 0.165278 381.515 49)">2</text><text font-family="Calibri Light,Calibri Light_MSFontService,sans-serif" font-weight="300" font-size="60" transform="matrix(0.165769 0 0 0.165278 386.55 49)">3</text><path d="M155.843 87.483 190.703 133.426 190.401 133.655 155.541 87.7121ZM191.905 131.563 192.842 136.558 188.283 134.311Z" transform="matrix(1.00297 0 0 1 -21.0526 -16.8334)"/><path d="M0.147476-0.118811 38.2616 47.1909 37.9668 47.4286-0.147476 0.118811ZM39.4086 45.2942 40.4904 50.2593 35.8692 48.1456Z" transform="matrix(-1.00297 0 0 1 365.02 69.4419)"/><path d="M193.293 156.684C193.293 145.593 202.284 136.603 213.374 136.603L324.772 136.603C335.862 136.603 344.853 145.593 344.853 156.684L344.853 237.009C344.853 248.099 335.862 257.091 324.772 257.091L213.374 257.091C202.284 257.091 193.293 248.099 193.293 237.009Z" stroke="#A5A5A5" stroke-width="0.757525" stroke-miterlimit="8" fill="#FFFFFF" fill-rule="evenodd" transform="matrix(1.00297 0 0 1 -21.0526 -16.8334)"/><text font-family="Calibri Light,Calibri Light_MSFontService,sans-serif" font-weight="700" font-size="60" transform="matrix(0.165769 0 0 0.165278 216.952 130)">Papers screened </text><text font-family="Calibri Light,Calibri Light_MSFontService,sans-serif" font-style="italic" font-weight="700" font-size="60" transform="matrix(0.165769 0 0 0.165278 219.634 141)">N</text><text font-family="Calibri Light,Calibri Light_MSFontService,sans-serif" font-weight="300" font-size="60" transform="matrix(0.165769 0 0 0.165278 225.807 141)">(</text><text font-family="Calibri Light,Calibri Light_MSFontService,sans-serif" font-weight="300" font-size="60" transform="matrix(0.165769 0 0 0.165278 228.791 141)">study</text><text font-family="Calibri Light,Calibri Light_MSFontService,sans-serif" font-weight="300" font-size="60" transform="matrix(0.165769 0 0 0.165278 250.341 141)">) = </text><text font-family="Calibri Light,Calibri Light_MSFontService,sans-serif" font-weight="300" font-size="60" transform="matrix(0.165769 0 0 0.165278 262.724 141)">12</text><text font-family="Calibri Light,Calibri Light_MSFontService,sans-serif" font-weight="300" font-size="60" transform="matrix(0.165769 0 0 0.165278 272.791 141)">6</text><text font-family="Calibri Light,Calibri Light_MSFontService,sans-serif" font-weight="300" font-size="60" transform="matrix(0.165769 0 0 0.165278 186.656 153)">Note that some studies provide </text><text font-family="Calibri Light,Calibri Light_MSFontService,sans-serif" font-weight="300" font-size="60" transform="matrix(0.165769 0 0 0.165278 189.444 165)">line means for some traits but </text><text font-family="Calibri Light,Calibri Light_MSFontService,sans-serif" font-weight="300" font-size="60" transform="matrix(0.165769 0 0 0.165278 210.911 177)">raw data for others</text><text font-family="Calibri Light,Calibri Light_MSFontService,sans-serif" font-weight="700" font-size="60" transform="matrix(0.165769 0 0 0.165278 219.508 201)">Traits screened</text><text font-family="Calibri Light,Calibri Light_MSFontService,sans-serif" font-style="italic" font-weight="700" font-size="60" transform="matrix(0.165769 0 0 0.165278 219.622 212)">N</text><text font-family="Calibri Light,Calibri Light_MSFontService,sans-serif" font-weight="300" font-size="60" transform="matrix(0.165769 0 0 0.165278 225.795 212)">(</text><text font-family="Calibri Light,Calibri Light_MSFontService,sans-serif" font-weight="300" font-size="60" transform="matrix(0.165769 0 0 0.165278 228.779 212)">trait</text><text font-family="Calibri Light,Calibri Light_MSFontService,sans-serif" font-weight="300" font-size="60" transform="matrix(0.165769 0 0 0.165278 245.522 212)">) = </text><text font-family="Calibri Light,Calibri Light_MSFontService,sans-serif" font-weight="300" font-size="60" transform="matrix(0.165769 0 0 0.165278 257.703 212)">21</text><text font-family="Calibri Light,Calibri Light_MSFontService,sans-serif" font-weight="300" font-size="60" transform="matrix(0.165769 0 0 0.165278 267.77 212)">31</text><text font-family="Calibri Light,Calibri Light_MSFontService,sans-serif" font-style="italic" font-weight="700" font-size="60" transform="matrix(0.165769 0 0 0.165278 204.07 225)">N</text><text font-family="Calibri Light,Calibri Light_MSFontService,sans-serif" font-weight="300" font-size="60" transform="matrix(0.165769 0 0 0.165278 210.243 225)">(</text><text font-family="Calibri Light,Calibri Light_MSFontService,sans-serif" font-weight="300" font-size="60" transform="matrix(0.165769 0 0 0.165278 213.227 225)">transcript</text><text font-family="Calibri Light,Calibri Light_MSFontService,sans-serif" font-weight="300" font-size="60" transform="matrix(0.165769 0 0 0.165278 251.851 225)">) = </text><text font-family="Calibri Light,Calibri Light_MSFontService,sans-serif" font-weight="300" font-size="64" transform="matrix(0.165769 0 0 0.165278 263.753 225)">36</text><text font-family="Calibri Light,Calibri Light_MSFontService,sans-serif" font-weight="300" font-size="64" transform="matrix(0.165769 0 0 0.165278 274.362 225)">,</text><text font-family="Calibri Light,Calibri Light_MSFontService,sans-serif" font-weight="300" font-size="64" transform="matrix(0.165769 0 0 0.165278 277.015 225)">280 </text><path d="M506.33 98.5616C506.33 81.1419 520.452 67.0204 537.872 67.0204L664.032 67.0204C681.453 67.0204 695.574 81.1419 695.574 98.5616L695.574 364.878C695.574 382.299 681.453 396.42 664.032 396.42L537.872 396.42C520.452 396.42 506.33 382.299 506.33 364.878Z" stroke="#A5A5A5" stroke-width="0.757525" stroke-miterlimit="8" fill="#FFFFFF" fill-rule="evenodd" transform="matrix(1.00297 0 0 1 -21.0526 -16.8334)"/><text font-family="Calibri Light,Calibri Light_MSFontService,sans-serif" font-weight="700" font-size="60" transform="matrix(0.165769 0 0 0.165278 521.376 78)">Studies excluded </text><text font-family="Calibri Light,Calibri Light_MSFontService,sans-serif" font-style="italic" font-weight="700" font-size="60" transform="matrix(0.165769 0 0 0.165278 588.73 78)">N</text><text font-family="Calibri Light,Calibri Light_MSFontService,sans-serif" font-weight="300" font-size="60" transform="matrix(0.165769 0 0 0.165278 594.903 78)">(</text><text font-family="Calibri Light,Calibri Light_MSFontService,sans-serif" font-weight="300" font-size="60" transform="matrix(0.165769 0 0 0.165278 597.887 78)">study</text><text font-family="Calibri Light,Calibri Light_MSFontService,sans-serif" font-weight="300" font-size="60" transform="matrix(0.165769 0 0 0.165278 619.437 78)">) = </text><text font-family="Calibri Light,Calibri Light_MSFontService,sans-serif" font-weight="300" font-size="60" transform="matrix(0.165769 0 0 0.165278 631.82 78)">5</text><text font-family="Calibri Light,Calibri Light_MSFontService,sans-serif" font-weight="300" font-size="60" transform="matrix(0.165769 0 0 0.165278 636.854 78)">0</text><text font-family="Calibri Light,Calibri Light_MSFontService,sans-serif" font-weight="700" font-size="60" transform="matrix(0.165769 0 0 0.165278 522.606 90)">Traits excluded </text><text font-family="Calibri Light,Calibri Light_MSFontService,sans-serif" font-style="italic" font-weight="700" font-size="60" transform="matrix(0.165769 0 0 0.165278 582.442 90)">N</text><text font-family="Calibri Light,Calibri Light_MSFontService,sans-serif" font-weight="300" font-size="60" transform="matrix(0.165769 0 0 0.165278 588.615 90)">(</text><text font-family="Calibri Light,Calibri Light_MSFontService,sans-serif" font-weight="300" font-size="60" transform="matrix(0.165769 0 0 0.165278 591.599 90)">trait</text><text font-family="Calibri Light,Calibri Light_MSFontService,sans-serif" font-weight="300" font-size="60" transform="matrix(0.165769 0 0 0.165278 608.342 90)">) = </text><text font-family="Calibri Light,Calibri Light_MSFontService,sans-serif" font-weight="300" font-size="60" transform="matrix(0.165769 0 0 0.165278 620.523 90)">9401</text><text font-family="Calibri Light,Calibri Light_MSFontService,sans-serif" font-weight="300" font-size="60" transform="matrix(0.165769 0 0 0.165278 531.062 124)">Discarded as measured in </text><text font-family="Calibri Light,Calibri Light_MSFontService,sans-serif" font-weight="300" font-size="60" transform="matrix(0.165769 0 0 0.165278 526.139 135)">heterozygotes</text><text font-family="Calibri Light,Calibri Light_MSFontService,sans-serif" font-weight="300" font-size="60" transform="matrix(0.165769 0 0 0.165278 582.334 135)">: </text><text font-family="Calibri Light,Calibri Light_MSFontService,sans-serif" font-style="italic" font-weight="700" font-size="60" transform="matrix(0.165769 0 0 0.165278 586.624 135)">N</text><text font-family="Calibri Light,Calibri Light_MSFontService,sans-serif" font-weight="300" font-size="60" transform="matrix(0.165769 0 0 0.165278 592.798 135)">(</text><text font-family="Calibri Light,Calibri Light_MSFontService,sans-serif" font-weight="300" font-size="60" transform="matrix(0.165769 0 0 0.165278 595.782 135)">study</text><text font-family="Calibri Light,Calibri Light_MSFontService,sans-serif" font-weight="300" font-size="60" transform="matrix(0.165769 0 0 0.165278 617.331 135)">) = </text><text font-family="Calibri Light,Calibri Light_MSFontService,sans-serif" font-weight="300" font-size="60" transform="matrix(0.165769 0 0 0.165278 629.93 135)">4</text><text font-family="Calibri Light,Calibri Light_MSFontService,sans-serif" font-weight="300" font-size="60" transform="matrix(0.165769 0 0 0.165278 634.903 135)">, </text><text font-family="Calibri Light,Calibri Light_MSFontService,sans-serif" font-style="italic" font-weight="700" font-size="60" transform="matrix(0.165769 0 0 0.165278 557.56 147)">N</text><text font-family="Calibri Light,Calibri Light_MSFontService,sans-serif" font-weight="300" font-size="60" transform="matrix(0.165769 0 0 0.165278 563.733 147)">(</text><text font-family="Calibri Light,Calibri Light_MSFontService,sans-serif" font-weight="300" font-size="60" transform="matrix(0.165769 0 0 0.165278 566.717 147)">trait</text><text font-family="Calibri Light,Calibri Light_MSFontService,sans-serif" font-weight="300" font-size="60" transform="matrix(0.165769 0 0 0.165278 583.46 147)">) = </text><text font-family="Calibri Light,Calibri Light_MSFontService,sans-serif" font-weight="300" font-size="60" transform="matrix(0.165769 0 0 0.165278 595.639 147)">17</text><text font-family="Calibri Light,Calibri Light_MSFontService,sans-serif" font-weight="300" font-size="60" transform="matrix(0.165769 0 0 0.165278 502.263 171)">Discarded as measured in fewer than </text><text font-family="Calibri Light,Calibri Light_MSFontService,sans-serif" font-weight="300" font-size="60" transform="matrix(0.165769 0 0 0.165278 652.118 171)">80 </text><text font-family="Calibri Light,Calibri Light_MSFontService,sans-serif" font-weight="300" font-size="60" transform="matrix(0.165769 0 0 0.165278 530.029 183)">DGRP lines</text><text font-family="Calibri Light,Calibri Light_MSFontService,sans-serif" font-weight="300" font-size="60" transform="matrix(0.165769 0 0 0.165278 573.129 183)">: </text><text font-family="Calibri Light,Calibri Light_MSFontService,sans-serif" font-style="italic" font-weight="700" font-size="60" transform="matrix(0.165769 0 0 0.165278 577.704 183)">N</text><text font-family="Calibri Light,Calibri Light_MSFontService,sans-serif" font-weight="300" font-size="60" transform="matrix(0.165769 0 0 0.165278 583.878 183)">(</text><text font-family="Calibri Light,Calibri Light_MSFontService,sans-serif" font-weight="300" font-size="60" transform="matrix(0.165769 0 0 0.165278 586.862 183)">study</text><text font-family="Calibri Light,Calibri Light_MSFontService,sans-serif" font-weight="300" font-size="60" transform="matrix(0.165769 0 0 0.165278 608.411 183)">) = </text><text font-family="Calibri Light,Calibri Light_MSFontService,sans-serif" font-weight="300" font-size="60" transform="matrix(0.165769 0 0 0.165278 621.01 183)">30</text><text font-family="Calibri Light,Calibri Light_MSFontService,sans-serif" font-weight="300" font-size="60" transform="matrix(0.165769 0 0 0.165278 630.956 183)">,</text><text font-family="Calibri Light,Calibri Light_MSFontService,sans-serif" font-style="italic" font-weight="700" font-size="60" transform="matrix(0.165769 0 0 0.165278 553.666 195)">N</text><text font-family="Calibri Light,Calibri Light_MSFontService,sans-serif" font-weight="300" font-size="60" transform="matrix(0.165769 0 0 0.165278 559.84 195)">(</text><text font-family="Calibri Light,Calibri Light_MSFontService,sans-serif" font-weight="300" font-size="60" transform="matrix(0.165769 0 0 0.165278 562.823 195)">trait</text><text font-family="Calibri Light,Calibri Light_MSFontService,sans-serif" font-weight="300" font-size="60" transform="matrix(0.165769 0 0 0.165278 579.566 195)">) = </text><text font-family="Calibri Light,Calibri Light_MSFontService,sans-serif" font-weight="300" font-size="60" transform="matrix(0.165769 0 0 0.165278 591.745 195)">1145</text><text font-family="Calibri Light,Calibri Light_MSFontService,sans-serif" font-weight="300" font-size="60" transform="matrix(0.165769 0 0 0.165278 510.135 218)">Discarded as measured in mixed</text><text font-family="Calibri Light,Calibri Light_MSFontService,sans-serif" font-weight="300" font-size="60" transform="matrix(0.165769 0 0 0.165278 637.413 218)">-</text><text font-family="Calibri Light,Calibri Light_MSFontService,sans-serif" font-weight="300" font-size="60" transform="matrix(0.165769 0 0 0.165278 640.451 218)">sex </text><text font-family="Calibri Light,Calibri Light_MSFontService,sans-serif" font-weight="300" font-size="60" transform="matrix(0.165769 0 0 0.165278 536.488 230)">cohorts</text><text font-family="Calibri Light,Calibri Light_MSFontService,sans-serif" font-weight="300" font-size="60" transform="matrix(0.165769 0 0 0.165278 566.658 230)">: </text><text font-family="Calibri Light,Calibri Light_MSFontService,sans-serif" font-style="italic" font-weight="700" font-size="60" transform="matrix(0.165769 0 0 0.165278 571.248 230)">N</text><text font-family="Calibri Light,Calibri Light_MSFontService,sans-serif" font-weight="300" font-size="60" transform="matrix(0.165769 0 0 0.165278 577.421 230)">(</text><text font-family="Calibri Light,Calibri Light_MSFontService,sans-serif" font-weight="300" font-size="60" transform="matrix(0.165769 0 0 0.165278 580.405 230)">study</text><text font-family="Calibri Light,Calibri Light_MSFontService,sans-serif" font-weight="300" font-size="60" transform="matrix(0.165769 0 0 0.165278 601.955 230)">) = </text><text font-family="Calibri Light,Calibri Light_MSFontService,sans-serif" font-weight="300" font-size="60" transform="matrix(0.165769 0 0 0.165278 614.553 230)">13</text><text font-family="Calibri Light,Calibri Light_MSFontService,sans-serif" font-weight="300" font-size="60" transform="matrix(0.165769 0 0 0.165278 624.499 230)">,</text><text font-family="Calibri Light,Calibri Light_MSFontService,sans-serif" font-style="italic" font-weight="700" font-size="60" transform="matrix(0.165769 0 0 0.165278 557.56 242)">N</text><text font-family="Calibri Light,Calibri Light_MSFontService,sans-serif" font-weight="300" font-size="60" transform="matrix(0.165769 0 0 0.165278 563.733 242)">(</text><text font-family="Calibri Light,Calibri Light_MSFontService,sans-serif" font-weight="300" font-size="60" transform="matrix(0.165769 0 0 0.165278 566.717 242)">trait</text><text font-family="Calibri Light,Calibri Light_MSFontService,sans-serif" font-weight="300" font-size="60" transform="matrix(0.165769 0 0 0.165278 583.46 242)">) = </text><text font-family="Calibri Light,Calibri Light_MSFontService,sans-serif" font-weight="300" font-size="60" transform="matrix(0.165769 0 0 0.165278 596.058 242)">37</text><text font-family="Calibri Light,Calibri Light_MSFontService,sans-serif" font-weight="300" font-size="60" transform="matrix(0.165769 0 0 0.165278 507.559 265)">Discarded as </text><text font-family="Calibri Light,Calibri Light_MSFontService,sans-serif" font-weight="300" font-size="60" transform="matrix(0.165769 0 0 0.165278 559.649 265)">traits are microbiome or </text><text font-family="Calibri Light,Calibri Light_MSFontService,sans-serif" font-weight="300" font-size="60" transform="matrix(0.165769 0 0 0.165278 539.967 277)">metabolome related</text><text font-family="Calibri Light,Calibri Light_MSFontService,sans-serif" font-weight="300" font-size="60" transform="matrix(0.165769 0 0 0.165278 621.36 277)">: </text><text font-family="Calibri Light,Calibri Light_MSFontService,sans-serif" font-style="italic" font-weight="700" font-size="60" transform="matrix(0.165769 0 0 0.165278 556.382 289)">N</text><text font-family="Calibri Light,Calibri Light_MSFontService,sans-serif" font-weight="300" font-size="60" transform="matrix(0.165769 0 0 0.165278 562.555 289)">(</text><text font-family="Calibri Light,Calibri Light_MSFontService,sans-serif" font-weight="300" font-size="60" transform="matrix(0.165769 0 0 0.165278 565.539 289)">study</text><text font-family="Calibri Light,Calibri Light_MSFontService,sans-serif" font-weight="300" font-size="60" transform="matrix(0.165769 0 0 0.165278 587.089 289)">) = </text><text font-family="Calibri Light,Calibri Light_MSFontService,sans-serif" font-weight="300" font-size="60" transform="matrix(0.165769 0 0 0.165278 599.687 289)">2</text><text font-family="Calibri Light,Calibri Light_MSFontService,sans-serif" font-weight="300" font-size="60" transform="matrix(0.165769 0 0 0.165278 604.66 289)">,</text><text font-family="Calibri Light,Calibri Light_MSFontService,sans-serif" font-style="italic" font-weight="700" font-size="60" transform="matrix(0.165769 0 0 0.165278 556.181 301)">N</text><text font-family="Calibri Light,Calibri Light_MSFontService,sans-serif" font-weight="300" font-size="60" transform="matrix(0.165769 0 0 0.165278 562.354 301)">(</text><text font-family="Calibri Light,Calibri Light_MSFontService,sans-serif" font-weight="300" font-size="60" transform="matrix(0.165769 0 0 0.165278 565.338 301)">trait</text><text font-family="Calibri Light,Calibri Light_MSFontService,sans-serif" font-weight="300" font-size="60" transform="matrix(0.165769 0 0 0.165278 582.081 301)">) = </text><text font-family="Calibri Light,Calibri Light_MSFontService,sans-serif" font-weight="300" font-size="60" transform="matrix(0.165769 0 0 0.165278 594.679 301)">458</text><text font-family="Calibri Light,Calibri Light_MSFontService,sans-serif" font-weight="300" font-size="60" transform="matrix(0.165769 0 0 0.165278 503.016 324)">Discarded as traits are Y</text><text font-family="Calibri Light,Calibri Light_MSFontService,sans-serif" font-weight="300" font-size="60" transform="matrix(0.165769 0 0 0.165278 597.409 324)">-</text><text font-family="Calibri Light,Calibri Light_MSFontService,sans-serif" font-weight="300" font-size="60" transform="matrix(0.165769 0 0 0.165278 600.45 324)">linked genes or </text><text font-family="Calibri Light,Calibri Light_MSFontService,sans-serif" font-weight="300" font-size="60" transform="matrix(0.165769 0 0 0.165278 520.047 336)">genes that can</text><text font-family="Calibri Light,Calibri Light_MSFontService,sans-serif" font-weight="300" font-size="60" transform="matrix(0.165769 0 0 0.165278 578.397 336)">’</text><text font-family="Calibri Light,Calibri Light_MSFontService,sans-serif" font-weight="300" font-size="60" transform="matrix(0.165769 0 0 0.165278 580.884 336)">t be matched to </text><text font-family="Calibri Light,Calibri Light_MSFontService,sans-serif" font-weight="300" font-size="60" transform="matrix(0.165769 0 0 0.165278 526.303 348)">GenBank data</text><text font-family="Calibri Light,Calibri Light_MSFontService,sans-serif" font-weight="300" font-size="60" transform="matrix(0.165769 0 0 0.165278 581.835 348)">: </text><text font-family="Calibri Light,Calibri Light_MSFontService,sans-serif" font-style="italic" font-weight="700" font-size="60" transform="matrix(0.165769 0 0 0.165278 586.465 348)">N</text><text font-family="Calibri Light,Calibri Light_MSFontService,sans-serif" font-weight="300" font-size="60" transform="matrix(0.165769 0 0 0.165278 592.639 348)">(</text><text font-family="Calibri Light,Calibri Light_MSFontService,sans-serif" font-weight="300" font-size="60" transform="matrix(0.165769 0 0 0.165278 595.622 348)">study</text><text font-family="Calibri Light,Calibri Light_MSFontService,sans-serif" font-weight="300" font-size="60" transform="matrix(0.165769 0 0 0.165278 617.172 348)">) = </text><text font-family="Calibri Light,Calibri Light_MSFontService,sans-serif" font-weight="300" font-size="60" transform="matrix(0.165769 0 0 0.165278 629.771 348)">0</text><text font-family="Calibri Light,Calibri Light_MSFontService,sans-serif" font-weight="300" font-size="60" transform="matrix(0.165769 0 0 0.165278 634.744 348)">,</text><text font-family="Calibri Light,Calibri Light_MSFontService,sans-serif" font-style="italic" font-weight="700" font-size="60" transform="matrix(0.165769 0 0 0.165278 552.526 360)">N</text><text font-family="Calibri Light,Calibri Light_MSFontService,sans-serif" font-weight="300" font-size="60" transform="matrix(0.165769 0 0 0.165278 558.699 360)">(</text><text font-family="Calibri Light,Calibri Light_MSFontService,sans-serif" font-weight="300" font-size="60" transform="matrix(0.165769 0 0 0.165278 561.683 360)">trait</text><text font-family="Calibri Light,Calibri Light_MSFontService,sans-serif" font-weight="300" font-size="60" transform="matrix(0.165769 0 0 0.165278 578.426 360)">) = </text><text font-family="Calibri Light,Calibri Light_MSFontService,sans-serif" font-weight="300" font-size="60" transform="matrix(0.165769 0 0 0.165278 591.024 360)">7744</text><path d="M344.771 196.656 492.417 196.656 492.417 197.037 344.771 197.037ZM491.659 194.574 496.204 196.847 491.659 199.119Z" transform="matrix(1.00297 0 0 1 -21.0526 -16.8334)"/><path d="M192.963 315.847C192.963 306.947 200.177 299.732 209.077 299.732L328.408 299.732C337.308 299.732 344.523 306.947 344.523 315.847L344.523 380.306C344.523 389.206 337.308 396.42 328.408 396.42L209.077 396.42C200.177 396.42 192.963 389.206 192.963 380.306Z" stroke="#A5A5A5" stroke-width="0.757525" stroke-miterlimit="8" fill="#FFFFFF" fill-rule="evenodd" transform="matrix(1.00297 0 0 1 -21.0526 -16.8334)"/><text font-family="Calibri Light,Calibri Light_MSFontService,sans-serif" font-weight="700" font-size="60" transform="matrix(0.165769 0 0 0.165278 209.646 299)">INCLUDED STUDIES</text><text font-family="Calibri Light,Calibri Light_MSFontService,sans-serif" font-weight="700" font-size="60" transform="matrix(0.165769 0 0 0.165278 288.386 299)">: </text><text font-family="Calibri Light,Calibri Light_MSFontService,sans-serif" font-style="italic" font-weight="700" font-size="60" transform="matrix(0.165769 0 0 0.165278 221.837 311)">N</text><text font-family="Calibri Light,Calibri Light_MSFontService,sans-serif" font-weight="300" font-size="60" transform="matrix(0.165769 0 0 0.165278 228.01 311)">(</text><text font-family="Calibri Light,Calibri Light_MSFontService,sans-serif" font-weight="300" font-size="60" transform="matrix(0.165769 0 0 0.165278 230.994 311)">study</text><text font-family="Calibri Light,Calibri Light_MSFontService,sans-serif" font-weight="300" font-size="60" transform="matrix(0.165769 0 0 0.165278 252.544 311)">) = </text><text font-family="Calibri Light,Calibri Light_MSFontService,sans-serif" font-weight="300" font-size="60" transform="matrix(0.165769 0 0 0.165278 265.142 311)">76</text><text font-family="Calibri Light,Calibri Light_MSFontService,sans-serif" font-weight="700" font-size="60" transform="matrix(0.165769 0 0 0.165278 215.422 334)">INCLUDED Traits</text><text font-family="Calibri Light,Calibri Light_MSFontService,sans-serif" font-weight="700" font-size="60" transform="matrix(0.165769 0 0 0.165278 282.061 334)">: </text><text font-family="Calibri Light,Calibri Light_MSFontService,sans-serif" font-style="italic" font-weight="700" font-size="60" transform="matrix(0.165769 0 0 0.165278 221.825 346)">N</text><text font-family="Calibri Light,Calibri Light_MSFontService,sans-serif" font-weight="300" font-size="60" transform="matrix(0.165769 0 0 0.165278 227.998 346)">(</text><text font-family="Calibri Light,Calibri Light_MSFontService,sans-serif" font-weight="300" font-size="60" transform="matrix(0.165769 0 0 0.165278 230.982 346)">trait</text><text font-family="Calibri Light,Calibri Light_MSFontService,sans-serif" font-weight="300" font-size="60" transform="matrix(0.165769 0 0 0.165278 247.725 346)">) = </text><text font-family="Calibri Light,Calibri Light_MSFontService,sans-serif" font-weight="300" font-size="60" transform="matrix(0.165769 0 0 0.165278 260.323 346)">474</text><text font-family="Calibri Light,Calibri Light_MSFontService,sans-serif" font-style="italic" font-weight="700" font-size="60" transform="matrix(0.165769 0 0 0.165278 204.802 358)">N</text><text font-family="Calibri Light,Calibri Light_MSFontService,sans-serif" font-weight="300" font-size="60" transform="matrix(0.165769 0 0 0.165278 210.976 358)">(</text><text font-family="Calibri Light,Calibri Light_MSFontService,sans-serif" font-weight="300" font-size="60" transform="matrix(0.165769 0 0 0.165278 213.96 358)">transcript</text><text font-family="Calibri Light,Calibri Light_MSFontService,sans-serif" font-weight="300" font-size="60" transform="matrix(0.165769 0 0 0.165278 252.584 358)">) = </text><text font-family="Calibri Light,Calibri Light_MSFontService,sans-serif" font-weight="300" font-size="60" transform="matrix(0.165769 0 0 0.165278 265.182 358)">28</text><text font-family="Calibri Light,Calibri Light_MSFontService,sans-serif" font-weight="300" font-size="60" transform="matrix(0.165769 0 0 0.165278 275.128 358)">,</text><text font-family="Calibri Light,Calibri Light_MSFontService,sans-serif" font-weight="300" font-size="60" transform="matrix(0.165769 0 0 0.165278 277.615 358)">536</text><path d="M0.189376-0.00138054 0.471994 38.7667 0.0932405 38.7695-0.189376 0.00138054ZM2.54962 37.994 0.310228 42.5557-1.99542 38.0273Z" transform="matrix(-1.00297 0 0 1 248.799 240.174)"/></g></svg>